<?xml version="1.0" standalone="no"?><!DOCTYPE svg PUBLIC "-//W3C//DTD SVG 1.1//EN"
        "http://www.w3.org/Graphics/SVG/1.1/DTD/svg11.dtd">
<svg t="1589724467340" class="icon" viewBox="0 0 1026 1024" version="1.1" xmlns="http://www.w3.org/2000/svg" p-id="1354"
     width="16.03125" height="16" xmlns:xlink="http://www.w3.org/1999/xlink">
    <defs>
        <style type="text/css"></style>
    </defs>
    <path d="M985.033255 1024h-941.85631c-22.61223 0-40.950274-18.338045-40.950274-40.950274v-941.856309c0-22.61223 18.338045-40.950274 40.950274-40.950275h941.85631c22.61223 0 40.950274 18.338045 40.950274 40.950275v941.856309c0 22.61223-18.325248 40.950274-40.950274 40.950274z"
          fill="#00CA98" p-id="1355"></path>
    <path d="M514.1051 128.212749c-212.032842 0-383.908822 171.875979-383.908822 383.908822s171.875979 383.908822 383.908822 383.908822 383.908822-171.875979 383.908822-383.908822-171.875979-383.908822-383.908822-383.908822z m192.376711 468.100027l-91.267924 95.810845c-11.235732 11.786001-29.8937 12.246691-41.679701 1.01096-11.786001-11.235732-12.246691-29.8937-1.01096-41.679702l43.803996-45.992276H343.086517c-16.277734 0-29.484198-13.206463-29.484198-29.484198s13.206463-29.484198 29.484198-29.484197h342.049963c11.798798 0 22.458666 7.025531 27.103963 17.864557a29.51619 29.51619 0 0 1-5.758632 31.954011z m-21.345331-107.046577H343.086517c-11.798798 0-22.458666-7.025531-27.103963-17.864557a29.512351 29.512351 0 0 1 5.745836-31.954011l91.267923-95.810845c11.235732-11.786001 29.8937-12.246691 41.679701-1.01096 11.786001 11.235732 12.246691 29.8937 1.01096 41.679701l-43.803996 45.992277h273.240705c16.290531 0 29.484198 13.206463 29.484198 29.484198s-13.193667 29.484198-29.471401 29.484197z"
          fill="#FFFFFF" p-id="1356"></path>
</svg>